<svg xmlns="http://www.w3.org/2000/svg" viewBox="0 0 100 100" width="100%" height="100%">
  <g fill="none" stroke="#1e293b" stroke-width="2.5" stroke-linecap="round" stroke-linejoin="round">
    <!-- Magic Swirl / Dotted Trail -->
    <path d="M 20 65 Q 40 50 60 55 Q 80 60 70 38 Q 65 30 75 25" stroke-dasharray="3 5" stroke-width="1.8" />
    <path d="M 12 85 Q 25 70 50 72 Q 75 74 65 48" stroke-dasharray="3 5" stroke-width="1.8" />
    
    <!-- The Wand Handle -->
    <path d="M 22 78 L 61 39" stroke-width="3" />
    <!-- Wand Tip / Connector -->
    <circle cx="62.5" cy="37.5" r="2.5" fill="#1e293b" />
    
    <!-- Grip detailing -->
    <path d="M 22 78 L 32 68" stroke-width="4" />
    <circle cx="20.5" cy="79.5" r="3.5" />
    
    <!-- Star at the top -->
    <!-- Centered around (69, 31) -->
    <path d="M 69 11 L 73.5 22 L 85 22 L 75.5 29 L 79 40 L 69 33 L 59 40 L 62.5 29 L 53 22 L 64.5 22 Z" stroke-width="2.5" />
    <circle cx="69" cy="26" r="3" /> <!-- Star center dot/circle -->
    
    <!-- Tiny Sparkles (4-point stars) -->
    <!-- Sparkle 1 (Top-Right) -->
    <path d="M 88 15 L 88 23 M 84 19 L 92 19" stroke-width="1.5" />
    <!-- Sparkle 2 (Left) -->
    <path d="M 46 25 L 46 31 M 43 28 L 49 28" stroke-width="1.5" />
    <!-- Sparkle 3 (Bottom-Right) -->
    <path d="M 80 48 L 80 54 M 77 51 L 83 51" stroke-width="1.5" />
    
    <!-- Floating Bubbles / Magic Dust -->
    <circle cx="88" cy="33" r="1.5" />
    <circle cx="56" cy="14" r="1" />
    <circle cx="58" cy="48" r="1" />
    <circle cx="71" cy="49" r="1.5" />
    <circle cx="45" cy="43" r="1.5" />
  </g>
</svg>