<svg xmlns="http://www.w3.org/2000/svg" viewBox="0 0 100 100"><g fill="none" stroke="#111827" stroke-width="2.6" stroke-linecap="round" stroke-linejoin="round"><path d="M18 51c6-21 43-25 62-7 8 7 3 24-14 28-21 6-49-4-48-21Z"/><path d="M20 49 8 38l2 17-6 10 17-5M54 68q4 14 15 10M49 43q8-9 17-2"/><circle cx="68" cy="50" r="2" fill="#111827"/><path d="M75 58q6 3 10-2M78 39q-3-12 5-18m-1 20q7-12 14-7"/><path d="m28 25 2 5 5 2-5 2-2 5-2-5-5-2 5-2Zm35-12 1 3 3 1-3 1-1 3-1-3-3-1 3-1Z"/><circle cx="14" cy="23" r="3"/></g></svg>
