<svg xmlns="http://www.w3.org/2000/svg" viewBox="0 0 100 100" width="100%" height="100%">
  <g fill="none" stroke="#1e293b" stroke-width="2.5" stroke-linecap="round" stroke-linejoin="round">
    <!-- Crown Base Band -->
    <path d="M 20 65 C 35 68, 65 68, 80 65 L 78 75 C 65 78, 35 78, 22 75 Z" />
    
    <!-- Base Jewels -->
    <circle cx="28" cy="70" r="2" fill="#1e293b" />
    <circle cx="39" cy="71" r="2.5" />
    <circle cx="50" cy="71.5" r="3" />
    <circle cx="61" cy="71.5" r="2.5" />
    <circle cx="72" cy="70.5" r="2" fill="#1e293b" />
    
    <!-- Crown Peaks (5 peaks) -->
    <path d="M 20 65 
             L 24 42 
             L 34 56 
             L 50 32 
             L 66 56 
             L 76 42 
             L 80 65" />
             
    <!-- Jewels on Peaks -->
    <circle cx="24" cy="40" r="3" />
    <circle cx="34" cy="54" r="2.5" fill="#1e293b" />
    <circle cx="50" cy="29" r="4.5" />
    <circle cx="66" cy="54" r="2.5" fill="#1e293b" />
    <circle cx="76" cy="40" r="3" />
    
    <!-- Large jewels hanging or floating inside the peaks -->
    <circle cx="50" cy="50" r="4" />
    
    <!-- Magical Sparkles & Glow -->
    <!-- Center Top Star -->
    <path d="M 50 10 L 50 20 M 45 15 L 55 15" stroke-width="2" />
    <path d="M 47 12 L 53 18 M 53 12 L 47 18" stroke-width="1.2" />
    
    <!-- Left Star -->
    <path d="M 16 30 L 16 36 M 13 33 L 19 33" stroke-width="1.5" />
    
    <!-- Right Star -->
    <path d="M 84 30 L 84 36 M 81 33 L 87 33" stroke-width="1.5" />
    
    <!-- Magic Dust Dots -->
    <circle cx="35" cy="25" r="1.5" />
    <circle cx="65" cy="25" r="1.5" />
    <circle cx="30" cy="38" r="1" />
    <circle cx="70" cy="38" r="1" />
    <circle cx="50" cy="7" r="1" />
  </g>
</svg>