<svg xmlns="http://www.w3.org/2000/svg" viewBox="0 0 100 100"><g fill="none" stroke="#111827" stroke-width="2.6" stroke-linecap="round" stroke-linejoin="round"><path d="M20 67c11-2 13-12 18-29 5-15 28-14 36-2 6 9 0 19-10 17l-9-2c9 8 13 17 8 29H35c-9 0-15-5-15-13Z"/><path d="M31 76 26 88h12l4-8m14 0 5 8h12L66 73M23 64 9 54l5 18 10 2"/><circle cx="64" cy="37" r="2" fill="#111827"/><path d="M68 44q6 3 10-1M40 37l-8-8m15 5-3-11m12 12 3-10"/><path d="M38 54h20v17H38Zm4 4 12 9m0-9-12 9"/><circle cx="63" cy="67" r="4"/></g></svg>
