<svg xmlns="http://www.w3.org/2000/svg" viewBox="0 0 100 100"><g fill="none" stroke="#111827" stroke-width="2.6" stroke-linecap="round" stroke-linejoin="round"><path d="M50 12c18 14 22 38 12 58H38C28 50 32 26 50 12Z"/><path d="M37 55 25 68v12l15-7M63 55l12 13v12l-15-7M43 70l-6 19 13-10 13 10-6-19"/><circle cx="50" cy="40" r="10"/><path d="m43 37-5-8 10 3m9 5 5-8-10 3"/><circle cx="46" cy="40" r="1.5" fill="#111827"/><circle cx="54" cy="40" r="1.5" fill="#111827"/><path d="M47 46q3 2 6 0"/></g></svg>
