<svg xmlns="http://www.w3.org/2000/svg" viewBox="0 0 100 100">
  <g fill="none" stroke="#111827" stroke-width="2.5" stroke-linecap="round" stroke-linejoin="round">
    <path d="M50 8c14 11 22 29 22 48 0 8-2 16-6 24H34c-4-8-6-16-6-24 0-19 8-37 22-48Z"/>
    <path d="M38 75 27 88V70l7-9"/>
    <path d="M62 75 73 88V70l-7-9"/>
    <circle cx="50" cy="34" r="9"/>
    <path d="M42 56h16"/>
    <path d="M40 65h20"/>
    <path d="M42 80c-3 3-5 7-6 12 6-2 10-5 14-10 4 5 8 8 14 10-1-5-3-9-6-12"/>
    <path d="M50 8c-4 6-6 12-6 18h12c0-6-2-12-6-18Z"/>
    <path d="M17 44c-4 2-7 5-9 9"/>
    <path d="M20 56H9"/>
    <path d="M83 44c4 2 7 5 9 9"/>
    <path d="M80 56h11"/>
    <path d="M22 25 18 17"/>
    <path d="m25 18-8 4"/>
    <path d="M78 25 82 17"/>
    <path d="m75 18 8 4"/>
  </g>
</svg>
