<svg xmlns="http://www.w3.org/2000/svg" viewBox="0 0 100 100"><g fill="none" stroke="#111827" stroke-width="2.6" stroke-linecap="round" stroke-linejoin="round"><path d="M13 56q37-17 74 0L72 72H28Z"/><path d="M29 72 22 87m18-15-2 17m33-17 7 15M60 72l2 17M17 87h10m7 2h9m31-2h9m-26 2h10"/><path d="M48 48V24m0 3q-13-12-23 0 13-1 23 8m0-8q13-12 23 0-13-1-23 8"/><path d="M48 30q-5 8-1 18M33 51l-4-10-5 9m48 2 5-11 5 10"/><circle cx="36" cy="61" r="2" fill="#111827"/><circle cx="64" cy="61" r="2" fill="#111827"/><path d="M44 65q6 4 12 0"/></g></svg>
