<svg xmlns="http://www.w3.org/2000/svg" viewBox="0 0 100 100"><g fill="none" stroke="#111827" stroke-width="2.6" stroke-linecap="round" stroke-linejoin="round"><path d="m31 38 19-29 20 29Z"/><path d="M26 38q24-7 48 0-23 9-48 0Z"/><circle cx="50" cy="52" r="13"/><circle cx="45" cy="50" r="1.5" fill="#111827"/><circle cx="55" cy="50" r="1.5" fill="#111827"/><path d="M46 57q4 3 8 0M38 62 25 84h50L62 62M44 67l6 7 6-7"/><path d="m68 67 14-18m-3-2 7 5m-4-10v14"/><path d="m45 25 2 4 4 1-4 2-2 4-2-4-4-2 4-1Z"/></g></svg>
