<svg xmlns="http://www.w3.org/2000/svg" viewBox="0 0 100 100" width="100%" height="100%">
  <g fill="none" stroke="#1e293b" stroke-width="2.5" stroke-linecap="round" stroke-linejoin="round">
    <!-- Antenna -->
    <path d="M 50 25 L 50 11" stroke-width="3" />
    <circle cx="50" cy="8" r="3" />
    
    <!-- Pizza Slice Body (Triangular) -->
    <!-- Top Crust -->
    <path d="M 24 28 C 36 21, 64 21, 76 28" stroke-width="4" />
    <!-- Crust Endcaps -->
    <path d="M 24 28 Q 21 31 22 34 L 27 34 L 24 28" />
    <path d="M 76 28 Q 79 31 78 34 L 73 34 L 76 28" />
    
    <!-- Pizza Sides going to bottom point -->
    <path d="M 24 32 L 50 82 L 76 32" />
    
    <!-- Robotic Eyes on Crust -->
    <circle cx="40" cy="35" r="5" />
    <circle cx="40" cy="35" r="1.5" fill="#1e293b" />
    <circle cx="60" cy="35" r="5" />
    <circle cx="60" cy="35" r="1.5" fill="#1e293b" />
    <path d="M 45 35 L 55 35" />
    
    <!-- Robot Smile (Mouth) -->
    <path d="M 45 44 L 55 44 Q 50 50 45 44" fill="none" />
    
    <!-- Pepperoni details (Robot bolts/gears) -->
    <circle cx="36" cy="52" r="4.5" />
    <path d="M 36 49 L 36 55 M 33 52 L 39 52" stroke-width="1.2" /> <!-- Bolt gear detail -->
    
    <circle cx="62" cy="55" r="4.5" />
    <path d="M 62 52 L 62 58 M 59 55 L 65 55" stroke-width="1.2" />
    
    <circle cx="49" cy="68" r="4.5" />
    <path d="M 49 65 L 49 71 M 46 68 L 52 68" stroke-width="1.2" />
    
    <!-- Cheese Melting Drips (Robotic wires) -->
    <path d="M 32 45 Q 32 54 35 54 Q 38 54 38 48" />
    <path d="M 66 45 Q 66 50 68 50 Q 70 50 70 47" stroke-dasharray="1 2" />
    
    <!-- Robotic Arms with Claws -->
    <!-- Left Arm -->
    <path d="M 33 58 L 18 60 L 15 72" />
    <path d="M 10 70 Q 15 78 20 70" stroke-width="2" /> <!-- Claw -->
    
    <!-- Right Arm -->
    <path d="M 67 58 L 82 60 L 85 72" />
    <path d="M 80 70 Q 85 78 90 70" stroke-width="2" /> <!-- Claw -->
    
    <!-- Robotic Feet/Wheels -->
    <!-- Left Leg -->
    <path d="M 44 80 L 36 91" stroke-width="3" />
    <circle cx="34" cy="91" r="3.5" />
    
    <!-- Right Leg -->
    <path d="M 56 80 L 64 91" stroke-width="3" />
    <circle cx="66" cy="91" r="3.5" />
  </g>
</svg>