<svg xmlns="http://www.w3.org/2000/svg" viewBox="0 0 100 100"><g fill="none" stroke="#111827" stroke-width="2.6" stroke-linecap="round" stroke-linejoin="round"><path d="M34 50c-5-24 37-26 32 0-2 10-9 15-16 15s-14-5-16-15Z"/><circle cx="43" cy="44" r="2" fill="#111827"/><circle cx="57" cy="44" r="2" fill="#111827"/><path d="M44 53q6 5 12 0M38 60q-19 6-12 21 7 6 11-3M44 64q-10 18 0 24 8 1 6-12M56 64q10 18 0 24-8 1-6-12M62 60q19 6 12 21-7 6-11-3"/><path d="M18 55l13 20M15 51l7-4 16 24-8 6Z"/><circle cx="80" cy="66" r="8"/><path d="M72 66h16M80 58v16M77 48v10"/></g></svg>
