<svg xmlns="http://www.w3.org/2000/svg" viewBox="0 0 100 100" width="100%" height="100%">
  <g fill="none" stroke="#1e293b" stroke-width="2.5" stroke-linecap="round" stroke-linejoin="round">
    <!-- Tail Fin -->
    <path d="M 28 42 L 10 32 L 15 48 L 8 62 L 25 50" />
    
    <!-- Shark Body Upper Half -->
    <path d="M 28 42 Q 45 42 55 42 Q 68 42 82 50" />
    
    <!-- Dorsal Fin (Aileron) -->
    <path d="M 46 42 Q 45 22 55 24 Q 54 36 58 42" />
    
    <!-- Unicorn Horn on Forehead -->
    <path d="M 74 44 L 88 20 L 79 47" />
    <!-- Horn Spirals -->
    <path d="M 76 40 L 81 37" stroke-width="1.5" />
    <path d="M 79 34 L 84 31" stroke-width="1.5" />
    <path d="M 81 28 L 86 25" stroke-width="1.5" />
    
    <!-- Shark Nose and Mouth (Lower Half) -->
    <path d="M 82 50 Q 86 51 84 55 C 80 62, 70 62, 64 56 L 25 50" />
    
    <!-- Happy Eye -->
    <circle cx="72" cy="48" r="3" />
    <circle cx="71.5" cy="47.5" r="1" fill="#1e293b" />
    
    <!-- Gills -->
    <path d="M 62 47 Q 61 50 62 53" />
    <path d="M 59 47 Q 58 50 59 53" />
    <path d="M 56 47 Q 55 50 56 53" />
    
    <!-- Smiling Mouth Detailing (Cute Tooth) -->
    <path d="M 75 56 Q 72 58 68 55" />
    <polygon points="72,57 73,61 74,57" fill="#1e293b" />
    
    <!-- Pectoral Fin (Foreground) -->
    <path d="M 53 50 Q 42 66 50 68 Q 54 62 58 51" />
    
    <!-- Pectoral Fin (Background) -->
    <path d="M 48 42 Q 42 32 46 32 Q 49 36 51 42" />
    
    <!-- Sea Bubbles -->
    <circle cx="88" cy="65" r="2.5" />
    <circle cx="92" cy="58" r="1.5" />
    <circle cx="83" cy="73" r="1" />
    <circle cx="20" cy="30" r="1.5" />
    <circle cx="15" cy="24" r="1" />
  </g>
</svg>