<svg xmlns="http://www.w3.org/2000/svg" viewBox="0 0 100 100" width="100%" height="100%">
  <g fill="none" stroke="#1e293b" stroke-width="2.5" stroke-linecap="round" stroke-linejoin="round">
    <!-- Cape flying behind -->
    <path d="M 44 37 Q 20 40 22 65 Q 35 70 44 63" />
    <path d="M 56 37 Q 80 40 78 65 Q 65 70 56 63" />
    
    <!-- Body / Suit -->
    <path d="M 44 37 L 44 65 L 56 65 L 56 37 Z" />
    
    <!-- Legs -->
    <path d="M 46 65 L 44 85 Q 43 88 40 88" />
    <path d="M 54 65 L 56 85 Q 57 88 60 88" />
    
    <!-- Head -->
    <circle cx="50" cy="24" r="11" />
    
    <!-- Hair -->
    <path d="M 39 23 C 38 15, 48 12, 50 15 C 52 12, 62 15, 61 23" />
    <path d="M 45 15 L 48 10 L 52 13 L 56 9 L 58 15" />
    
    <!-- Mask -->
    <path d="M 39 24 Q 50 28 61 24" />
    <path d="M 39 21 Q 50 25 61 21" />
    <circle cx="45" cy="22.5" r="1.5" fill="#1e293b" />
    <circle cx="55" cy="22.5" r="1.5" fill="#1e293b" />
    
    <!-- Smile -->
    <path d="M 47 29 Q 50 32 53 29" />
    
    <!-- Arms flying high -->
    <path d="M 44 38 L 30 20" />
    <circle cx="28" cy="18" r="3.5" />
    <path d="M 56 38 L 70 20" />
    <circle cx="72" cy="18" r="3.5" />
    
    <!-- Belt -->
    <path d="M 44 58 L 56 58" />
    <rect x="48" y="56" width="4" height="4" />
    
    <!-- Emblem (Star) -->
    <path d="M 50 42 L 51.5 45.5 L 55 45.5 L 52 47.5 L 53.5 51 L 50 49 L 46.5 51 L 48 47.5 L 45 45.5 L 48.5 45.5 Z" />
  </g>
</svg>